<?xml version="1.0" encoding="UTF-8" standalone="no"?>
<svg
   width="681.14288"
   height="500"
   viewBox="0 0 180.21906 132.29166"
   version="1.1"
   id="svg6"
   sodipodi:docname="mrt icon.svg.2021_10_17_21_36_25.0.svg"
   inkscape:version="1.1-dev (278aa57, 2020-11-27)"
   xmlns:inkscape="http://www.inkscape.org/namespaces/inkscape"
   xmlns:sodipodi="http://sodipodi.sourceforge.net/DTD/sodipodi-0.dtd"
   xmlns="http://www.w3.org/2000/svg"
   xmlns:svg="http://www.w3.org/2000/svg">
  <defs
     id="defs2" />
  <sodipodi:namedview
     id="base"
     pagecolor="#c2ceff"
     bordercolor="#666666"
     borderopacity="1.0"
     inkscape:pageopacity="0"
     inkscape:pageshadow="2"
     inkscape:zoom="0.35"
     inkscape:cx="307.14286"
     inkscape:cy="561.42857"
     inkscape:document-units="px"
     inkscape:current-layer="layer1"
     showgrid="false"
     inkscape:pagecheckerboard="true"
     fit-margin-top="0"
     fit-margin-left="0"
     fit-margin-right="0"
     fit-margin-bottom="0"
     units="px" />
  <g
     inkscape:label="Layer 1"
     inkscape:groupmode="layer"
     id="layer1"
     transform="translate(-24.795244,-127.37798)">
    <g
       id="g38"
       transform="matrix(0.5269673,0,0,0.53353659,64.31277,113.46315)">
      <path
         style="fill:#fcfcfc;stroke-width:1.20831"
         d="m -74.990471,150.05655 c 0,-123.97619 0,-123.97619 170.99643,-123.97619 170.996431,0 170.996431,0 170.996431,123.97619 0,123.97619 0,123.97619 -170.996431,123.97619 -170.99643,0 -170.99643,0 -170.99643,-123.97619 z m 260.119941,91.52148 c -0.38673,-6.42873 -0.38673,-6.42873 -14.63643,-7.37665 -14.2497,-0.94793 -14.2497,-0.94793 -13.88869,-53.91443 0.36101,-52.96651 0.36101,-52.96651 -7.77257,-52.53485 -6.97082,0.36994 -14.30888,106.11106 -8.31333,119.79482 2.47313,5.64449 44.96761,-0.0412 44.61102,-5.96889 z M -8.9435054,241.06634 c -0.020823,-7.39416 -0.6732233,-9.10973 -3.8664456,-10.16729 -1.555088,-0.51502 -1.493415,-0.66132 0.308821,-0.73252 2.092978,-0.0827 2.275886,-3.212 2.5908548,-44.32594 0.338893,-44.23696 0.338893,-44.23696 8.2556753,-43.8605 7.604517,0.36161 13.7660059,-10.13909 8.591112,-14.64139 -6.48491788,-5.64205 -52.8137291,0.2352 -53.1681481,6.74488 -0.388285,7.13169 -0.388285,7.13169 10.209488,6.76234 10.597775,-0.36935 10.597775,-0.36935 9.798916,8.61092 -3.930195,44.18083 1.088889,98.65361 9.089876,98.65361 8.2096875,0 8.2096875,0 8.1898506,-7.04411 z m 59.4545744,4.84302 c 14.613984,-7.11542 20.317518,-95.41761 6.937423,-107.40514 -6.418857,-5.75079 -6.416645,-5.75171 -21.254078,8.8147 -6.300012,6.18492 -9.515725,30.84586 -6.318954,48.45933 5.186453,28.57614 5.733356,30.91813 7.220028,30.91813 8.533327,0 15.428751,-49.15172 7.073662,-50.42222 -4.451554,-0.67693 -5.261122,1.25928 -3.133185,7.49349 2.472035,7.24232 1.816005,9.11704 -3.190373,9.11704 -10.741742,0 -3.138142,-33.12987 8.180135,-35.64191 4.620585,-1.02552 6.217095,-1.0362 6.570757,-0.044 12.131702,34.03617 -2.3788,91.18334 -19.703229,77.59781 -22.202724,-17.411 -17.749477,-88.13345 6.389854,-101.4779 10.031339,-5.54542 10.587042,-6.53522 4.249779,-7.56957 -4.511571,-0.73637 -22.273711,4.8423 -25.206464,7.91676 -10.0445353,10.52986 -11.4700639,82.71131 -1.93155,97.80372 3.237921,5.12323 6.876326,11.0231 8.085343,13.11081 2.198041,3.79554 19.1838,4.66271 26.030852,1.32893 z m 63.725121,-0.0969 c 18.6585,-8.68784 19.14233,-115.48775 0.50415,-111.2854 -7.16164,1.61474 -18.44405,16.41219 -20.004224,26.23654 -0.885969,5.57893 -2.026916,12.73175 -2.535436,15.89516 -0.599123,3.72701 -0.141591,10.07476 1.29978,18.0329 1.223388,6.75468 2.964534,16.33865 3.869183,21.2977 2.470587,13.54296 7.325937,13.91134 10.111247,0.76714 0.7462,-3.52134 2.19898,-9.79026 3.22842,-13.93095 1.96598,-7.90773 0.97575,-23.79978 -1.62387,-26.06152 -3.03866,-2.64372 -5.67101,0.23196 -4.71643,5.15239 1.89281,9.75667 1.73823,10.37213 -2.69944,10.74768 -10.900856,0.9225 -3.464001,-32.91418 7.78273,-35.41034 7.1924,-1.59632 6.4923,-2.44683 9.90453,12.03244 2.92022,12.39151 2.95289,10.92289 -0.85094,38.25024 -3.62831,26.06649 -16.94181,37.62089 -26.66214,23.13931 -7.355074,-10.95776 -11.750537,-63.95245 -6.239076,-75.22235 8.27054,-16.91168 8.47387,-17.17145 17.401966,-22.2323 11.83468,-6.70842 7.53022,-11.15068 -5.910527,-6.09976 -16.56936,6.22663 -15.615277,5.32306 -19.457075,18.427 -16.574166,56.5325 4.793445,115.0727 36.597152,100.26412 z m 114.22292,0.15245 c 6.42712,-2.12599 10.55138,-14.18942 9.63179,-28.17289 -0.91407,-13.8994 -2.84895,-17.63732 -23.3319,-45.07398 -12.20395,-16.34706 -14.43984,-25.84379 -7.22138,-30.67215 6.17122,-4.12787 15.2022,-0.20074 17.01731,7.40002 1.36873,5.73146 -2.34854,10.19433 -5.19185,6.23323 -1.33886,-1.86521 -1.28092,-2.2414 0.34523,-2.2414 3.22985,0 2.34245,-5.15466 -1.23888,-7.19625 -8.91293,-5.08093 -14.33427,3.85093 -7.80189,12.85392 4.81672,6.63846 15.58361,6.78409 20.66389,0.27951 13.71447,-17.55944 -7.84105,-39.3728 -29.14508,-29.49371 -12.15278,5.63547 -14.56636,15.59233 -8.1472,33.61004 2.5934,7.27933 5.03914,11.34876 10.49915,17.46937 19.49254,21.85097 24.2585,44.26456 11.3883,53.55758 -9.97004,7.19895 -21.52062,-9.41552 -12.18964,-17.5337 4.53033,-3.94152 9.72685,-0.80582 8.26447,4.98698 -1.20347,4.76715 -4.84109,4.97752 -3.74668,0.21669 0.42749,-1.85964 0.3746,-3.38117 -0.11749,-3.38117 -8.0914,0 -8.64284,11.79723 -0.60665,12.97847 13.35894,1.96363 17.25317,-14.25333 5.74956,-23.94319 -14.97429,-12.61332 -34.12775,11.01428 -23.18967,28.60663 6.34978,10.21275 23.4448,14.45256 38.36866,9.516 z M -38.246867,108.76169 c 0.453086,-2.87598 0.875919,-8.83529 0.939627,-13.24291 0.115834,-8.013853 0.115834,-8.013853 1.836897,-2.564929 2.966192,9.391029 6.627815,8.424869 11.366674,-2.99925 3.353736,-8.084955 3.353736,-8.084955 3.437444,8.050458 0.08371,16.135411 0.08371,16.135411 3.646135,15.778791 3.717575,-0.37216 4.577127,-22.086784 2.077487,-52.482981 -1.420247,-17.270526 -6.570702,-14.134164 -11.479049,6.99015 -2.081577,8.958601 -4.096832,16.027622 -4.478342,15.708934 -0.381511,-0.318686 -2.483491,-7.521582 -4.671068,-16.006434 -3.99987,-15.514115 -6.470144,-19.227838 -9.773369,-14.692939 -3.516201,4.827289 -1.156539,60.69017 2.563568,60.69017 3.431822,0 3.772013,-0.39234 4.533996,-5.22906 z M 9.2127038,96.239613 c 3.783e-4,-17.271894 0.1179409,-18.040204 4.3545332,-28.458171 6.755882,-16.613016 6.793934,-16.905844 2.196828,-16.905844 -3.456746,0 -4.009239,0.501556 -5.276447,4.789989 C 5.0281349,74.141339 5.3867636,73.900368 0.84283535,62.146161 -2.900362,52.463281 -3.6273715,51.405014 -6.7576878,51.082501 c -4.4755502,-0.461113 -4.4777762,-0.476103 2.3680155,15.953866 5.8294238,13.990677 5.8294238,13.990677 5.8294238,30.472529 0,16.481854 0,16.481854 3.8862825,16.481854 3.8862825,0 3.8862825,0 3.8866698,-17.751137 z m 40.2277872,7.325867 c 0.06993,-10.425272 0.06993,-10.425272 4.342645,-0.28177 3.45902,8.21178 4.820502,10.21414 7.149136,10.5144 6.684808,0.86196 6.743724,-0.33556 0.584109,-11.8719 C 51.293445,82.779668 51.580861,83.662764 55.116166,82.26133 65.394372,78.186938 64.914961,58.117325 54.427401,53.42809 43.846097,48.696936 40.302576,51.308175 40.302576,63.836745 c 0,12.92846 -0.208145,12.65432 8.086325,10.650198 5.090137,-1.229885 6.805703,-3.859451 5.946886,-9.115228 -0.557649,-3.412714 -4.965218,-4.348411 -4.965218,-1.054082 0,1.285214 0.582942,2.336753 1.295427,2.336753 0.712486,0 1.295428,0.760763 1.295428,1.690584 0,1.896896 -0.237252,1.973123 -3.13262,1.006474 -2.079472,-0.694253 -2.694196,-4.431251 -1.26278,-7.676633 1.361449,-3.086748 8.086708,-2.287522 9.057112,1.076343 2.201346,7.630861 -2.765912,15.173795 -9.992409,15.173795 -4.662805,0 -8.397591,31.635531 -4.169104,35.314431 4.569624,3.97569 6.90907,0.73282 6.978868,-9.6739 z m 30.633951,9.52982 c 0.921062,-0.50937 1.714537,-4.29924 1.943141,-9.28095 0.330541,-7.202949 8.806096,-14.499889 10.186348,-8.769828 0.04638,0.19239 0.775028,4.407201 1.619284,9.366248 1.486167,8.72941 1.65364,9.02824 5.260719,9.38678 3.566166,0.35448 3.693376,0.2097 2.970936,-3.38117 -0.41512,-2.06332 -2.252998,-14.909354 -4.084175,-28.546734 -4.144863,-30.868291 -3.889961,-29.866992 -7.603162,-29.866992 -2.850472,0 -7.113944,12.590876 -11.639999,34.375217 -0.257583,1.239761 -0.822648,3.014875 -1.25571,3.944697 -1.978428,4.247899 -4.868864,16.213842 -4.253536,17.608942 0.376244,0.85306 0.119439,1.55101 -0.570675,1.55101 -0.690126,0 -1.254776,1.01435 -1.254776,2.25412 0,2.36085 5.354247,3.19878 8.681605,1.35866 z m 1.681814,-24.72129 c 2.962721,-0.981221 3.511153,-2.201686 5.302963,-11.801119 1.870817,-10.022762 3.028411,-9.539531 4.384335,1.830227 0.511875,4.292219 1.227249,8.476415 1.58971,9.298214 0.499504,1.132487 -1.020823,1.47264 -6.280557,1.405202 -3.816782,-0.04894 -6.065178,-0.378574 -4.996451,-0.732524 z m 32.385684,3.133984 c 0.64772,-21.919226 0.64772,-21.919226 5.68531,0.341536 5.03761,22.26076 5.03761,22.26076 8.42028,21.91923 3.19324,-0.32241 7.53897,-55.12268 4.85406,-61.210087 -3.47686,-7.88291 -7.30468,0.166851 -7.43519,15.635922 -0.14393,17.060101 0.0178,17.326736 -8.32124,-13.719046 -1.31836,-4.908205 -11.52701,-3.098962 -11.48434,2.03533 0.51726,62.236621 0.19205,57.661281 4.07098,57.272971 3.56243,-0.35663 3.56243,-0.35663 4.21014,-22.275856 z m 36.89261,19.730926 c 26.01071,-6.45068 19.0324,-62.383737 -7.50412,-60.147614 -7.33649,0.618216 -7.00722,48.607707 0.34466,50.231264 10.04415,2.21812 18.10735,-19.772722 11.26514,-30.723487 -3.09317,-4.950522 -10.94785,-7.59899 -9.44351,-3.184192 0.38554,1.131424 1.09524,5.86095 1.57713,10.510058 1.08842,10.500901 3.04529,14.235226 3.10067,5.917045 0.035,-5.25625 0.34442,-5.917045 2.77069,-5.917045 2.184,0 2.58577,0.508131 2.00507,2.535876 -0.3994,1.394732 -1.11409,4.658997 -1.58819,7.253921 -0.76108,4.165657 -6.03518,10.650977 -7.54738,9.280682 -0.28774,-0.260729 -1.22478,-8.050105 -2.08232,-17.309726 -1.63031,-17.60383 -1.13131,-19.816511 4.46212,-19.786228 17.82784,0.09652 15.03696,42.980056 -2.98237,45.825756 -5.5807,0.88133 -6.03856,1.21284 -6.41874,4.64742 -0.45374,4.09927 -0.87337,4.06909 12.04115,0.86627 z m 37.58717,1.62477 c 10.31702,0 16.66887,-47.429469 7.42851,-55.468833 -4.89292,-4.256966 -12.45195,3.245599 -14.24098,14.134606 -2.2179,13.499285 2.61563,36.082287 6.13312,28.654847 4.08068,-8.616673 4.3727,-23.386418 0.46239,-23.386418 -1.38247,0 -1.63445,0.935988 -1.01963,3.787313 0.60134,2.788804 0.31047,3.956304 -1.10328,4.428296 -2.921,0.975213 -3.50031,-4.187041 -1.24418,-11.087114 4.85906,-14.860691 12.37943,-4.925887 10.07993,13.316104 -3.91972,31.095229 -17.47525,25.950909 -17.49248,-6.638397 -0.008,-15.782749 2.20696,-22.089756 8.97983,-25.565754 8.02605,-4.119153 2.48342,-5.84989 -6.27897,-1.960667 -12.25965,5.4415 -10.29783,64.553137 2.00609,60.445347 1.08618,-0.36263 3.91652,-0.65933 6.28965,-0.65933 z m 25.26814,-10.90018 c 0.70777,-12.526675 1.84058,-15.458875 3.22268,-8.341626 1.72211,8.868306 6.33866,6.974946 11.26826,-4.621405 3.51043,-8.25789 3.51043,-8.25789 3.57774,8.36619 0.0673,16.624081 0.0673,16.624081 3.30588,16.624081 3.74313,0 4.07441,-5.9962 2.38742,-43.211663 -0.70095,-15.462859 -8.21685,-32.26387 -8.21685,-18.367895 0,0.738575 -6.28281,27.265327 -7.2602,30.653419 -0.8822,3.058109 -1.08796,2.793503 -2.68255,-3.449622 -7.34703,-28.765044 -6.92734,-27.612335 -10.05342,-27.612335 -2.79307,0 -6.27476,57.495726 -3.70645,61.207396 3.63952,5.25976 7.52775,-0.10083 8.15749,-11.24654 z"
         id="path44" />
      <path
         style="fill:#989898;stroke-width:1.20831"
         d="m 140.64462,247.82868 c -5.87224,-13.34366 1.07326,-119.66569 7.82615,-119.80317 4.56756,-0.093 5.50236,0.0271 2.267,0.29112 -5.87949,0.47988 -6.45965,2.25213 -5.54012,16.92416 0.1254,2.00043 -0.25277,4.78989 -0.84031,6.1988 -0.72169,1.73055 -1.30332,-1.64344 -1.79272,-10.39949 -0.39845,-7.12863 -0.68992,14.29963 -0.64771,47.61836 0.0422,33.31873 -0.0873,60.5794 -0.28778,60.57928 -0.2005,-1.4e-4 -0.64352,-0.63421 -0.98451,-1.40906 z m -150.4386344,-7.0441 c 0.0057,-4.33917 0.2398911,-5.97617 0.5203188,-3.6378 0.280429,2.33838 0.2757266,5.88861 -0.010493,7.88939 -0.2861754,2.0008 -0.5156164,0.0876 -0.5098699,-4.25159 z m 194.1225444,1.47686 c -0.2335,-6.41254 -0.2335,-6.41254 -5.09135,-6.85464 -4.85786,-0.4421 -4.85786,-0.4421 0.0407,-0.63157 5.77375,-0.22332 6.45921,0.77437 5.7759,8.40667 -0.49169,5.49207 -0.49169,5.49207 -0.72519,-0.92046 z m -30.44891,-8.41726 c -0.4688,-0.40788 -0.28942,-1.33174 0.39862,-2.05304 0.68804,-0.72128 1.44437,-9.38993 1.68074,-19.26365 0.42974,-17.95222 0.42974,-17.95222 0.35704,1.44183 -0.0727,19.39405 -0.0727,19.39405 6.40446,19.79676 6.47713,0.40272 6.47713,0.40272 -0.75567,0.61121 -3.97805,0.11466 -7.61637,-0.12524 -8.08519,-0.53311 z m 83.72935,-14.47367 c 0.008,-3.71928 0.24911,-5.10493 0.53742,-3.07922 0.28831,2.02572 0.28237,5.06877 -0.0132,6.76234 -0.29559,1.69357 -0.53148,0.0362 -0.52421,-3.68312 z M 11.04772,202.46467 c 0.0012,-11.77774 0.193205,-16.44277 0.426579,-10.36673 0.233374,6.07603 0.232355,15.71237 -0.0022,21.41406 -0.234619,5.7017 -0.425561,0.7304 -0.424316,-11.04733 z m 63.508874,-12.96115 c 0,-18.28649 0.178148,-25.76732 0.395896,-16.62408 0.217735,9.14324 0.217735,24.10492 0,33.24816 -0.217748,9.14324 -0.395896,1.66241 -0.395896,-16.62408 z m 8.962092,7.88939 c 0,-5.88887 0.218331,-8.29795 0.485189,-5.35351 0.266858,2.94443 0.266858,7.7626 0,10.70703 -0.266858,2.94444 -0.485189,0.53535 -0.485189,-5.35352 z m 44.021614,1.69059 c 0.005,-4.95905 0.23246,-6.84756 0.50612,-4.19668 0.27364,2.65089 0.26979,6.70829 -0.009,9.01646 -0.27835,2.30816 -0.50225,0.13927 -0.49755,-4.81978 z m -63.518614,-4.50823 c 0.0078,-3.71928 0.24911,-5.10493 0.537421,-3.07922 0.28831,2.02572 0.282364,5.06877 -0.01321,6.76234 -0.29559,1.69357 -0.531475,0.0362 -0.524207,-3.68312 z m -90.556963,-24.79524 c 0.0017,-9.91809 0.199819,-13.82461 0.4404,-8.68117 0.24058,5.14346 0.239239,13.25826 -0.003,18.0329 -0.242222,4.77465 -0.43906,0.56637 -0.43742,-9.35173 z m 21.497891,-28.24218 c 4.90519711,-0.92851 11.6588475,-1.08575 11.6588475,-0.27144 0,0.49541 -3.0604475,0.84191 -6.80099438,0.77001 -3.74054692,-0.0719 -5.92658082,-0.29626 -4.85785312,-0.49857 z M -33.212934,126.6752 c 6.94673,-0.20265 18.314106,-0.20265 25.2608361,0 6.94673,0.20265 1.2630418,0.36846 -12.6304181,0.36846 -13.89346,0 -19.577148,-0.16581 -12.630418,-0.36846 z m 12.374009,-29.071486 c -0.215217,-9.08899 0.03697,-17.108141 0.560429,-17.820336 0.523454,-0.712195 0.960661,6.439522 0.971571,15.892707 0.01992,17.262705 3.751752,26.335395 5.563047,13.524675 0.516016,-3.64961 0.517478,-3.64859 0.402057,0.28176 -0.444004,15.11923 -7.107835,4.5607 -7.497104,-11.878806 z M 4.3211683,113.18629 C 7.8503001,112.71956 7.8503001,112.71956 8.2438031,95.604019 8.6373073,78.488477 8.6373073,78.488477 8.9248119,96.239613 9.2123165,113.99075 9.2123165,113.99075 5.0021771,113.82188 1.1322662,113.66666 1.0772326,113.61529 4.3211683,113.18629 Z m 37.8477327,-0.65387 c -0.353769,-0.80209 -0.464377,-9.04369 -0.245794,-18.314669 0.397423,-16.856331 0.397423,-16.856331 0.683874,0.819944 0.28645,17.676275 0.28645,17.676275 3.848876,18.145795 3.562426,0.46952 3.562426,0.46952 -0.04066,0.63839 -1.981695,0.0929 -3.892529,-0.48738 -4.246299,-1.28946 z m 52.988657,-0.28086 c -0.421908,-0.95656 -0.403604,-2.05544 0.04068,-2.44196 0.444267,-0.38652 0.807751,0.14253 0.807751,1.17567 0,2.52541 4.821761,2.44431 5.584161,-0.0939 0.44582,-1.48423 0.62962,-1.34477 0.7427,0.56353 0.1796,3.0309 -5.892478,3.7051 -7.175262,0.79668 z m 11.419142,-2.48727 c 0.19918,-4.0608 0.22755,-4.08562 0.72381,-0.63324 0.37527,2.61075 1.29264,3.7244 3.35511,4.07297 2.34123,0.3957 2.21441,0.50665 -0.72382,0.63324 -3.31816,0.14296 -3.54821,-0.13631 -3.3551,-4.07297 z m 17.92866,3.33056 c 0,-0.5751 1.4317,-0.80752 3.18156,-0.51649 3.11386,0.51789 3.19139,0.3527 3.64404,-7.76392 0.46249,-8.293063 0.46249,-8.293063 0.38087,0.15986 -0.0807,8.36352 -0.11931,8.45669 -3.64404,8.80955 -1.95933,0.19614 -3.56243,-0.11391 -3.56243,-0.689 z m 80.85358,-0.63912 c -0.37237,-0.84426 -0.46429,-4.52128 -0.20429,-8.17116 0.47275,-6.636137 0.47275,-6.636137 0.71771,0.89663 0.23701,7.2889 0.36027,7.54797 3.80736,8.00229 3.56243,0.46952 3.56243,0.46952 -0.0407,0.63839 -1.99845,0.0937 -3.90462,-0.51476 -4.28014,-1.36615 z M -38.358613,93.703736 c -0.05208,-7.748512 0.288194,-12.566677 0.756154,-10.707034 0.467961,1.859643 0.510569,8.199334 0.09468,14.088203 -0.756156,10.707035 -0.756156,10.707035 -0.850838,-3.381169 z M 139.36309,76.234364 c 0.0396,-24.795238 0.0396,-24.795238 4.90875,-24.913404 4.86907,-0.118165 4.86907,-0.118165 0.34891,0.3485 -4.52016,0.466666 -4.52016,0.466666 -4.90876,24.913403 -0.38861,24.446737 -0.38861,24.446737 -0.3489,-0.348499 z m 98.3176,11.270563 c 0.004,-6.19881 0.2209,-8.590891 0.48341,-5.315736 0.26252,3.275154 0.25976,8.346907 -0.006,11.270562 -0.26553,2.923655 -0.4803,0.243983 -0.47693,-5.954826 z m -60.85902,-7.325866 c 0,-7.748512 0.20697,-10.918358 0.45993,-7.044102 0.25296,3.874256 0.25296,10.213948 0,14.088204 -0.25296,3.874256 -0.45993,0.70441 -0.45993,-7.044102 z m -28.02704,7.515451 c -1.53031,-3.251824 -1.2414,-7.073969 0.42513,-5.62405 0.76819,0.668341 1.2054,2.671684 0.97157,4.451872 -0.34893,2.656567 -0.59927,2.866665 -1.3967,1.172178 z M -45.969672,71.162611 c 0,-9.608155 0.198678,-13.538764 0.441508,-8.734686 0.242829,4.804077 0.242829,12.665295 0,17.469372 -0.24283,4.804077 -0.441508,0.873469 -0.441508,-8.734686 z m 31.041996,1.690584 c 0.0034,-6.198809 0.220912,-8.59089 0.483419,-5.315736 0.262508,3.275155 0.259749,8.346908 -0.0061,11.270563 -0.265924,2.923655 -0.480703,0.243983 -0.47733,-5.954827 z M 132.73775,67.217914 c -0.004,-5.578929 0.21511,-8.003315 0.48679,-5.387524 0.27167,2.615791 0.27491,7.180368 0.008,10.143506 -0.26832,2.963138 -0.49062,0.822947 -0.49456,-4.755982 z m -6.50142,-7.325866 c 0,-4.649107 0.22865,-6.551014 0.50814,-4.226461 0.27948,2.324554 0.27948,6.128369 0,8.452922 -0.27949,2.324554 -0.50814,0.422646 -0.50814,-4.226461 z m 80.29559,-1.127056 c 0,-4.029226 0.23512,-5.677546 0.52249,-3.662933 0.28735,2.014613 0.28735,5.311253 0,7.325866 -0.28737,2.014613 -0.52249,0.366293 -0.52249,-3.662933 z M 105.716,54.248806 c -1.13463,-1.597276 2.22503,-2.48744 7.33105,-1.942406 3.86075,0.412111 3.69756,0.49679 -1.49596,0.776288 -5.45937,0.293803 -5.58272,0.368333 -1.94314,1.174079 3.88628,0.860361 3.88628,0.860361 0.40031,0.993708 -1.91728,0.07334 -3.84881,-0.377409 -4.29226,-1.001669 z"
         id="path42" />
      <path
         style="fill:#171717;stroke-width:1.20831"
         d="m -25.497963,192.9641 c 0.352639,-50.98103 0.221494,-55.02034 -1.736279,-53.47802 -6.26792,4.9378 -18.585875,1.37806 -18.997614,-5.49008 -0.388504,-6.48058 -0.388504,-6.48058 24.936979,-6.48058 13.9290158,0 25.7626903,0 26.2970541,0 6.9258089,0 -0.041752,13.00315 -7.1248512,13.2967 -8.0964219,0.33553 -8.0964219,0.33553 -8.0964219,44.11477 0,43.77923 0,43.77923 -3.562426,44.62675 -3.562425,0.84753 -3.562425,0.84753 -0.323857,1.57826 8.4471257,1.90597 4.996362,16.97855 -3.887124,16.97855 -7.88691,0 -7.88691,0 -7.50546,-55.14635 z m 49.313718,49.34087 C 10.865524,222.12838 12.220093,227.52999 11.327426,192.50525 c -0.831937,-32.64194 -0.541909,-35.63479 5.161364,-53.26109 2.213827,-6.84197 19.81811,-15.24876 26.974595,-12.88151 4.422476,1.46288 4.468424,1.39925 -4.608994,6.38222 -26.438399,14.51312 -26.864188,105.93405 -0.494956,106.27189 12.787431,0.16383 24.114059,-45.80002 17.618527,-71.49654 -3.236986,-12.80559 -6.174944,-14.68271 -15.300494,-9.77586 -8.401871,4.51774 -10.72796,37.22358 -2.546143,35.7999 5.854241,-1.01866 6.29458,-1.875 4.140722,-8.0525 -2.52909,-7.2537 -2.464663,-8.38586 0.477215,-8.38586 2.518316,0 2.913576,1.04355 4.695765,12.39762 0.994285,6.33444 -4.685368,32.15699 -7.637911,34.72578 -8.450075,7.35178 -13.068693,-43.06415 -6.552313,-71.52377 2.023611,-8.83792 18.67518,-18.96253 23.68763,-14.40273 9.602111,8.73497 10.449139,69.60511 1.277085,91.77475 -6.638025,16.04466 -5.950451,15.33017 -15.67174,16.28509 -4.441044,0.43624 -9.601917,1.05817 -11.468608,1.38205 -3.009584,0.5222 -3.832228,-0.0939 -7.263415,-5.43972 z m 62.81618,-1.11786 C 74.319868,221.88649 75.277681,226.27215 75.290933,189.25922 c 0.01166,-31.01 2.692352,-52.78918 6.850363,-55.64395 3.164795,-2.17286 22.187444,-7.94987 24.765564,-7.52108 5.53393,0.92038 4.93093,1.87579 -4.31776,6.84113 -23.756934,12.75436 -28.551558,84.65496 -6.817756,102.23947 18.157006,14.69058 33.385326,-40.40759 21.422786,-77.51061 -0.72213,-2.23972 -2.99894,-2.44231 -9.57777,-0.85219 -11.403677,2.7563 -16.484032,38.45259 -5.21197,36.62112 5.95391,-0.96737 5.71457,-0.38882 3.38987,-8.19406 -2.5028,-8.40327 -2.51723,-8.13315 0.43468,-8.13315 7.15022,0 5.23085,35.91413 -2.49791,46.73963 -3.2343,4.53022 -3.740867,3.18764 -8.377422,-22.20265 -5.917176,-32.40309 -1.95677,-49.29362 14.870522,-63.42042 20.92246,-17.56477 25.57267,81.84397 4.96188,106.07107 -0.58716,0.69017 -4.12271,1.57809 -7.8568,1.97314 -3.73409,0.39506 -8.890192,1.02587 -11.457988,1.4018 -4.624327,0.677 -4.712222,0.61535 -9.239287,-6.48136 z M 141.60432,188.0947 c 0.14211,-33.00866 0.57932,-54.18323 0.97157,-47.0546 0.48132,8.74737 1.06048,12.12833 1.78145,10.39949 0.58754,-1.40891 0.96569,-4.19837 0.84031,-6.1988 -0.94374,-15.05839 -0.38022,-16.59831 6.07398,-16.59831 5.6775,0 8.52106,97.36777 3.01223,103.14278 -2.0311,2.12922 -0.0435,2.7999 8.32867,2.8103 19.43154,0.0242 21.4825,0.73762 21.4825,7.47306 0,6.04183 0,6.04183 -21.37455,6.04183 -21.37456,0 -21.37456,0 -21.11616,-60.01575 z m 60.24612,56.8767 c -11.70378,-4.78504 -15.36868,-11.36195 -13.0867,-23.48509 0.91913,-4.88297 1.70203,-9.45504 1.73978,-10.16014 0.24906,-4.65159 16.90052,-7.44077 21.87887,-3.66479 13.05669,9.90325 4.83484,31.21449 -8.53209,22.11538 -2.65479,-1.80716 -1.97094,-7.34556 1.08252,-8.76733 3.14754,-1.46557 4.95161,-0.5209 2.71739,1.42292 -2.33307,2.02984 -1.83139,4.26403 0.95748,4.26403 4.3665,0 6.40823,-7.75156 2.72518,-10.34628 -5.44597,-3.83671 -10.69081,-0.40275 -12.33764,8.07781 -1.2987,6.68788 -0.0662,8.60741 6.44211,10.03323 25.44217,5.57374 25.12133,-24.24792 -0.58175,-54.07345 -24.1429,-28.01512 -14.58436,-58.84878 15.69881,-50.64083 10.88695,2.9508 14.0623,6.74379 14.0623,16.79757 0,16.50797 -15.18671,24.11096 -23.69149,11.86076 -6.20134,-8.93234 1.18507,-17.91781 8.75041,-10.64474 2.63885,2.53691 1.8066,5.97885 -1.20273,4.97415 -2.83476,-0.94641 -2.46515,1.10841 0.63901,3.55251 4.4226,3.4822 7.25214,-0.007 5.69187,-7.01814 -2.77243,-12.45873 -19.80554,-13.08167 -21.74118,-0.79512 -1.17643,7.46746 -0.15683,9.81658 9.97589,22.98407 24.66818,32.05633 29.95136,47.71764 21.95755,65.09047 -3.78878,8.2341 -3.58887,8.08976 -13.86297,10.0089 -10.49621,1.96062 -10.63638,1.9491 -19.28262,-1.58589 z M -46.046789,94.08726 c 0.468133,-10.327037 0.851151,-24.020771 0.851151,-30.430519 0,-10.589324 0.219039,-11.654087 2.397445,-11.654087 2.472073,0 11.271018,29.188651 10.872068,36.065801 -0.323584,5.57794 1.921,-1.392978 5.47307,-16.997515 4.495357,-19.748479 4.213519,-19.068286 7.900977,-19.068286 3.051827,0 3.151272,0.26103 3.151272,8.271682 0,4.549425 0.383844,18.243159 0.852987,30.430519 0.852989,22.158835 0.852989,22.158835 -1.943141,22.158835 -2.741647,0 -2.796129,-0.33306 -2.796129,-17.093684 0,-9.401527 -0.36967,-16.772063 -0.821491,-16.378967 -0.45182,0.393095 -2.419346,4.66182 -4.372278,9.486056 -5.143324,12.705305 -7.908357,12.729865 -11.429063,0.101514 -2.610369,-9.363076 -2.610369,-9.363076 -2.709475,7.261004 -0.09911,16.624077 -0.09911,16.624077 -4.188824,16.624077 -4.089718,0 -4.089718,0 -3.238569,-18.77643 z m 47.4865405,1.94396 c 0,-9.45058 -0.61895137,-18.223897 -1.4113566,-20.005249 -9.4581986,-21.262348 -10.2695219,-24.023317 -7.0593674,-24.023317 2.7039471,0 3.503849,1.125307 6.60944988,9.298215 C 3.5085414,71.643489 6.6350428,76.770746 6.6039629,72.822208 6.5479965,65.711622 12.233182,52.002654 15.23795,52.002654 c 3.876272,0 3.956634,-0.571538 -2.139351,15.21526 -5.0844869,13.167318 -5.18171,13.721427 -5.18171,29.532438 0,16.113338 0,16.113338 -3.2385688,16.113338 -3.2385687,0 -3.2385687,0 -3.2385687,-16.83247 z M 42.893431,95.394321 c 0,-17.469372 0,-17.469372 4.902406,-17.469372 7.596397,0 13.294491,-13.020856 7.792784,-17.80749 -4.3644,-3.797143 -8.808907,-1.636263 -8.808907,4.282814 0,4.982927 0.316613,5.635282 2.735024,5.635282 2.421885,0 2.63806,-0.449692 1.888107,-3.927699 -0.701194,-3.251887 -0.503105,-3.812913 1.151258,-3.260586 5.13622,1.714779 1.179358,9.903937 -5.497899,11.378518 -5.277088,1.165371 -6.753628,-2.991208 -6.753628,-19.012013 0,-5.315113 13.452534,-3.870852 18.520974,1.988409 5.613994,6.489926 2.890085,22.689953 -4.141612,24.631657 -3.697164,1.020919 -3.679408,1.087758 4.404337,16.578647 3.918668,7.509352 7.124851,13.832872 7.124851,14.052282 0,1.50329 -7.645328,0.0706 -8.396054,-1.57343 -0.495384,-1.08479 -2.368015,-5.52257 -4.161431,-9.86174 -4.699504,-11.370483 -5.482274,-11.204814 -4.646483,0.98341 0.74407,10.85068 0.74407,10.85068 -2.684828,10.85068 -3.428899,0 -3.428899,0 -3.428899,-17.469369 z m 28.499406,16.305999 c 0,-0.63986 1.31162,-1.62206 2.914711,-2.18267 2.362886,-0.82633 2.468995,-1.03283 0.560415,-1.09074 -1.613351,-0.049 -2.147236,-0.69217 -1.696388,-2.04379 0.691836,-2.07408 2.590143,-8.852407 3.945458,-14.088204 0.76811,-2.967295 1.140054,-3.099405 8.726271,-3.099405 7.923962,0 7.923962,0 7.063435,-5.353517 -0.473284,-2.944435 -1.218505,-8.269775 -1.656048,-11.834091 -1.132243,-9.223534 -2.297907,-8.08334 -4.896975,4.789989 -1.927,9.544495 -7.558781,17.767459 -7.140112,10.425271 0.803891,-14.097707 14.141314,-45.90674 14.209998,-33.890076 0.0052,0.817964 1.743658,13.659416 3.864416,28.536559 4.604092,32.297824 4.543132,30.994044 1.449233,30.994044 -2.745555,0 -3.447922,-1.75884 -4.725719,-11.83409 -1.537219,-12.12076 -12.255276,-9.557293 -12.255276,2.93113 0,8.90296 0,8.90296 -5.18171,8.90296 -2.84994,0 -5.181709,-0.52352 -5.181709,-1.16337 z m 35.800333,-4.06568 c -2.71221,-17.215931 -0.88071,-52.248686 2.73863,-52.384165 3.56243,-0.133347 3.56243,-0.133347 -0.32385,-0.993708 -3.68772,-0.816401 -3.61163,-0.867175 1.48925,-0.993709 5.37553,-0.133347 5.37553,-0.133347 7.56168,8.601339 6.56883,26.245475 6.61735,26.291635 7.70161,7.325865 0.96462,-16.872961 1.0365,-17.187608 3.92676,-17.187608 3.28786,0 3.21881,-2.566569 1.17658,43.735886 -1.17236,26.58057 -4.18497,25.03598 -11.6625,-5.979501 -5.43445,-22.541125 -5.43445,-22.541125 -5.54692,0.281764 -0.11853,24.047927 -4.37402,34.651017 -7.06124,17.593837 z m 32.85732,2.55507 c 0,-2.90152 0.86819,-3.35099 8.36983,-4.33322 13.28374,-1.7393 17.12116,-38.571738 4.65377,-44.668067 -9.23159,-4.514084 -16.19776,29.002335 -7.58533,36.495381 1.24874,1.086432 7.85685,-6.259662 8.82107,-9.806188 1.02059,-3.753858 1.02059,-3.753858 1.15319,0.09182 0.1967,5.704678 -5.73176,14.031084 -9.38337,13.178764 -1.53483,-0.35824 -3.51927,-0.65827 -4.40987,-0.66674 -1.24467,-0.0118 -1.61929,-5.621307 -1.61929,-24.247097 0,-27.57379 2.30916,-30.30856 16.72496,-19.807692 15.71588,11.447877 12.08982,50.200699 -5.06611,54.143159 -12.04646,2.7683 -11.65885,2.78093 -11.65885,-0.38012 z m 36.29063,-4.05621 c -8.14797,-14.043119 -5.07891,-47.98168 4.76888,-52.735808 7.2356,-3.493057 11.41326,-2.192956 5.04714,1.570682 -11.61036,6.864026 -14.07087,41.256251 -3.67835,51.414746 7.785,7.60969 16.62033,-15.215196 12.8701,-33.248161 -2.62802,-12.636801 -14.06745,-4.272266 -12.31294,9.003247 0.72273,5.468574 5.70996,4.264069 5.15084,-1.244021 -0.32667,-3.218143 -0.0277,-4.133722 1.14412,-3.503632 1.92752,1.036437 0.99114,16.194237 -1.32106,21.384937 -1.99737,4.4839 -3.08627,2.60114 -5.15815,-8.918671 -3.53179,-19.636955 4.51395,-39.423699 12.88009,-31.675805 8.38819,7.768307 2.8402,52.332666 -6.72225,53.996586 -7.78816,1.35518 -8.60003,0.96783 -12.66842,-6.0441 z M 206.1173,92.749824 c 0,-45.076124 2.74094,-51.775846 9.97864,-24.39087 2.29161,8.670642 4.23608,17.032742 4.32108,18.582445 0.23719,4.325049 1.27172,1.155238 5.70144,-17.469373 4.3125,-18.131683 8.55174,-23.842062 10.30152,-13.876414 2.70673,15.415888 1.82747,57.268078 -1.20312,57.268078 -3.12175,0 -3.12175,0 -3.48024,-16.624077 -0.35849,-16.62408 -0.35849,-16.62408 -4.02729,-7.325866 -2.84706,7.215538 -4.21412,9.298214 -6.10336,9.298214 -2.48781,0 -2.69959,-0.456188 -6.67389,-14.37602 -1.56735,-5.489547 -1.65725,-4.643951 -1.22825,11.552326 0.46286,17.475423 0.46286,17.475423 -3.56183,17.475423 -4.0247,0 -4.0247,0 -4.0247,-20.113866 z M 155.81339,81.024353 c -0.27938,-3.976275 -5.39948,-4.564082 -5.39948,-0.619881 0,5.381584 -2.34489,-0.03579 -3.21656,-7.431162 -0.82402,-6.991199 -0.69819,-7.696654 1.25636,-7.044101 1.19466,0.398847 2.61884,0.725177 3.16483,0.725177 2.13986,0 5.44285,8.729002 4.9346,13.040903 -0.35159,2.982921 -0.59307,3.416757 -0.73975,1.329064 z"
         id="path40" />
    </g>
  </g>
</svg>
